<?xml version="1.0" encoding="utf-8"?>
<!-- Generator: Adobe Illustrator 24.3.0, SVG Export Plug-In . SVG Version: 6.00 Build 0)  -->
<svg version="1.1" id="Layer_1" xmlns="http://www.w3.org/2000/svg" xmlns:xlink="http://www.w3.org/1999/xlink" x="0px" y="0px"
	 viewBox="0 0 400 400" style="enable-background:new 0 0 400 400;" xml:space="preserve">
<style type="text/css">
	.st0{fill:#FA6541;}
</style>
<path class="st0" d="M255.61,210.24c26.24-17.42,43.59-47.21,43.59-81c0-53.6-43.6-97.2-97.2-97.2s-97.2,43.6-97.2,97.2
	c0,33.79,17.35,63.58,43.59,81c-59.38,21.91-101.91,78.91-101.91,145.8H72.4c0-71.46,58.14-129.6,129.6-129.6
	c71.46,0,129.6,58.14,129.6,129.6h25.92C357.52,289.15,314.99,232.15,255.61,210.24z M202,200.52c-39.3,0-71.28-31.98-71.28-71.28
	S162.7,57.96,202,57.96s71.28,31.98,71.28,71.28S241.3,200.52,202,200.52z"/>
<g id="Layer_2">
	<path class="st0" d="M342.52,320.16c-17.13-62.06-73.98-107.64-141.49-107.64S76.68,258.1,59.55,320.16H342.52z"/>
	<path class="st0" d="M121.03,101.62c-2.41,7.91-3.71,16.31-3.71,25.01c0,47.44,38.46,85.89,85.89,85.89s85.89-38.46,85.89-85.89
		c0-8.7-1.3-17.09-3.71-25.01H121.03z"/>
</g>
</svg>
